M48
;DRILL file {KiCad 4.0.7} date 09/22/17 17:04:27
;FORMAT={-:-/ absolute / inch / decimal}
FMAT,2
INCH,TZ
T1C0.012
T2C0.016
%
G90
G05
M72
T1
X7.3337Y-4.1998
X7.3337Y-4.2333
X7.3337Y-4.2667
X7.3337Y-4.3002
X7.3752Y-4.1998
X7.3752Y-4.2333
X7.3752Y-4.2667
X7.3752Y-4.3002
X7.4168Y-4.1998
X7.4168Y-4.2333
X7.4168Y-4.2667
X7.4168Y-4.3002
X7.4584Y-4.1998
X7.4584Y-4.2333
X7.4584Y-4.2667
X7.4584Y-4.3002
X7.5Y-4.1998
X7.5Y-4.2333
X7.5Y-4.2667
X7.5Y-4.3002
X7.5416Y-4.1998
X7.5416Y-4.2333
X7.5416Y-4.2667
X7.5416Y-4.3002
X7.5832Y-4.1998
X7.5832Y-4.2333
X7.5832Y-4.2667
X7.5832Y-4.3002
X7.6248Y-4.1998
X7.6248Y-4.2333
X7.6248Y-4.2667
X7.6248Y-4.3002
X7.6663Y-4.1998
X7.6663Y-4.2333
X7.6663Y-4.2667
X7.6663Y-4.3002
T2
X7.1467Y-4.25
X7.2Y-4.35
X7.25Y-5.45
X7.35Y-4.5
X7.35Y-4.75
X7.35Y-4.8
X7.45Y-4.75
X7.5Y-4.75
X7.5Y-5.
X7.55Y-4.75
X7.55Y-5.15
X7.6Y-5.15
X7.65Y-5.15
X7.7Y-5.15
X7.8Y-5.25
X7.85Y-5.35
X8.15Y-3.95
X8.15Y-4.15
X8.15Y-4.35
X8.15Y-4.55
X8.4Y-3.95
X8.4Y-4.15
X8.4Y-4.35
X8.4Y-4.55
X8.65Y-3.95
X8.65Y-4.15
X8.65Y-4.35
X8.65Y-4.55
X8.9Y-3.95
X8.9Y-4.15
X8.9Y-4.35
X8.9Y-4.55
T0
M30
